<mxfile host="app.diagrams.net" modified="2022-12-04T16:41:38.194Z" agent="5.0 (Windows NT 10.0; Win64; x64) AppleWebKit/537.36 (KHTML, like Gecko) Chrome/106.0.0.0 YaBrowser/22.11.0.2500 Yowser/2.5 Safari/537.36" etag="CLTW40J3QwnGMGOoeL4r" version="20.6.0" type="github">
  <diagram id="C5RBs43oDa-KdzZeNtuy" name="Page-1">
    <mxGraphModel dx="2201" dy="1968" grid="1" gridSize="10" guides="1" tooltips="1" connect="1" arrows="1" fold="1" page="1" pageScale="1" pageWidth="827" pageHeight="1169" math="0" shadow="0">
      <root>
        <mxCell id="WIyWlLk6GJQsqaUBKTNV-0" />
        <mxCell id="WIyWlLk6GJQsqaUBKTNV-1" parent="WIyWlLk6GJQsqaUBKTNV-0" />
        <mxCell id="l2DL5o-c70L8eopWNdNp-2" value="" style="edgeStyle=orthogonalEdgeStyle;rounded=0;orthogonalLoop=1;jettySize=auto;html=1;" edge="1" parent="WIyWlLk6GJQsqaUBKTNV-1" source="l2DL5o-c70L8eopWNdNp-0" target="l2DL5o-c70L8eopWNdNp-1">
          <mxGeometry relative="1" as="geometry" />
        </mxCell>
        <mxCell id="l2DL5o-c70L8eopWNdNp-0" value="Начало" style="strokeWidth=2;html=1;shape=mxgraph.flowchart.terminator;whiteSpace=wrap;" vertex="1" parent="WIyWlLk6GJQsqaUBKTNV-1">
          <mxGeometry x="-20" y="-210" width="140" height="60" as="geometry" />
        </mxCell>
        <mxCell id="l2DL5o-c70L8eopWNdNp-8" style="edgeStyle=orthogonalEdgeStyle;rounded=0;orthogonalLoop=1;jettySize=auto;html=1;exitX=0.5;exitY=1;exitDx=0;exitDy=0;entryX=0.5;entryY=0;entryDx=0;entryDy=0;" edge="1" parent="WIyWlLk6GJQsqaUBKTNV-1" source="l2DL5o-c70L8eopWNdNp-1" target="l2DL5o-c70L8eopWNdNp-4">
          <mxGeometry relative="1" as="geometry" />
        </mxCell>
        <mxCell id="l2DL5o-c70L8eopWNdNp-1" value="ОЧИСТКА ЭКРАНА" style="whiteSpace=wrap;html=1;strokeWidth=2;" vertex="1" parent="WIyWlLk6GJQsqaUBKTNV-1">
          <mxGeometry x="-20" y="-130" width="140" height="60" as="geometry" />
        </mxCell>
        <mxCell id="l2DL5o-c70L8eopWNdNp-3" value="" style="verticalLabelPosition=bottom;verticalAlign=top;html=1;shape=process;whiteSpace=wrap;rounded=1;size=0.14;arcSize=6;" vertex="1" parent="WIyWlLk6GJQsqaUBKTNV-1">
          <mxGeometry x="-20" y="-50" width="140" height="60" as="geometry" />
        </mxCell>
        <mxCell id="l2DL5o-c70L8eopWNdNp-7" style="edgeStyle=orthogonalEdgeStyle;rounded=0;orthogonalLoop=1;jettySize=auto;html=1;exitX=0.5;exitY=1;exitDx=0;exitDy=0;entryX=0.5;entryY=0;entryDx=0;entryDy=0;" edge="1" parent="WIyWlLk6GJQsqaUBKTNV-1" source="l2DL5o-c70L8eopWNdNp-4" target="l2DL5o-c70L8eopWNdNp-6">
          <mxGeometry relative="1" as="geometry" />
        </mxCell>
        <mxCell id="l2DL5o-c70L8eopWNdNp-4" value="main_menu()" style="text;html=1;strokeColor=none;fillColor=none;align=center;verticalAlign=middle;whiteSpace=wrap;rounded=0;" vertex="1" parent="WIyWlLk6GJQsqaUBKTNV-1">
          <mxGeometry y="-50" width="100" height="60" as="geometry" />
        </mxCell>
        <mxCell id="l2DL5o-c70L8eopWNdNp-5" value="" style="verticalLabelPosition=bottom;verticalAlign=top;html=1;shape=process;whiteSpace=wrap;rounded=1;size=0.14;arcSize=6;" vertex="1" parent="WIyWlLk6GJQsqaUBKTNV-1">
          <mxGeometry x="-20" y="30" width="140" height="60" as="geometry" />
        </mxCell>
        <mxCell id="l2DL5o-c70L8eopWNdNp-10" style="edgeStyle=orthogonalEdgeStyle;rounded=0;orthogonalLoop=1;jettySize=auto;html=1;exitX=0.5;exitY=1;exitDx=0;exitDy=0;entryX=0.5;entryY=0;entryDx=0;entryDy=0;entryPerimeter=0;" edge="1" parent="WIyWlLk6GJQsqaUBKTNV-1" source="l2DL5o-c70L8eopWNdNp-6" target="l2DL5o-c70L8eopWNdNp-9">
          <mxGeometry relative="1" as="geometry" />
        </mxCell>
        <mxCell id="l2DL5o-c70L8eopWNdNp-6" value="enter()" style="text;html=1;strokeColor=none;fillColor=none;align=center;verticalAlign=middle;whiteSpace=wrap;rounded=0;" vertex="1" parent="WIyWlLk6GJQsqaUBKTNV-1">
          <mxGeometry y="30" width="100" height="60" as="geometry" />
        </mxCell>
        <mxCell id="l2DL5o-c70L8eopWNdNp-12" value="" style="edgeStyle=orthogonalEdgeStyle;rounded=0;orthogonalLoop=1;jettySize=auto;html=1;" edge="1" parent="WIyWlLk6GJQsqaUBKTNV-1" source="l2DL5o-c70L8eopWNdNp-9" target="l2DL5o-c70L8eopWNdNp-11">
          <mxGeometry relative="1" as="geometry" />
        </mxCell>
        <mxCell id="l2DL5o-c70L8eopWNdNp-9" value="gl_key==13" style="strokeWidth=2;html=1;shape=mxgraph.flowchart.decision;whiteSpace=wrap;" vertex="1" parent="WIyWlLk6GJQsqaUBKTNV-1">
          <mxGeometry x="-20" y="110" width="140" height="100" as="geometry" />
        </mxCell>
        <mxCell id="l2DL5o-c70L8eopWNdNp-14" value="" style="edgeStyle=orthogonalEdgeStyle;rounded=0;orthogonalLoop=1;jettySize=auto;html=1;entryX=0.5;entryY=0;entryDx=0;entryDy=0;" edge="1" parent="WIyWlLk6GJQsqaUBKTNV-1" source="l2DL5o-c70L8eopWNdNp-11" target="l2DL5o-c70L8eopWNdNp-18">
          <mxGeometry relative="1" as="geometry">
            <mxPoint x="270" y="-190" as="targetPoint" />
            <Array as="points">
              <mxPoint x="180" y="250" />
              <mxPoint x="180" y="-220" />
              <mxPoint x="270" y="-220" />
            </Array>
          </mxGeometry>
        </mxCell>
        <mxCell id="l2DL5o-c70L8eopWNdNp-22" style="edgeStyle=orthogonalEdgeStyle;rounded=0;orthogonalLoop=1;jettySize=auto;html=1;exitX=1;exitY=0.5;exitDx=0;exitDy=0;entryX=0.5;entryY=0;entryDx=0;entryDy=0;" edge="1" parent="WIyWlLk6GJQsqaUBKTNV-1" source="l2DL5o-c70L8eopWNdNp-11" target="l2DL5o-c70L8eopWNdNp-20">
          <mxGeometry relative="1" as="geometry" />
        </mxCell>
        <mxCell id="l2DL5o-c70L8eopWNdNp-11" value="switch (gl_pos)" style="whiteSpace=wrap;html=1;strokeWidth=2;" vertex="1" parent="WIyWlLk6GJQsqaUBKTNV-1">
          <mxGeometry x="-20" y="220" width="140" height="60" as="geometry" />
        </mxCell>
        <mxCell id="l2DL5o-c70L8eopWNdNp-17" value="" style="verticalLabelPosition=bottom;verticalAlign=top;html=1;shape=process;whiteSpace=wrap;rounded=1;size=0.14;arcSize=6;" vertex="1" parent="WIyWlLk6GJQsqaUBKTNV-1">
          <mxGeometry x="200" y="-190" width="140" height="60" as="geometry" />
        </mxCell>
        <mxCell id="l2DL5o-c70L8eopWNdNp-18" value="case 0;&lt;br&gt;func()" style="text;html=1;strokeColor=none;fillColor=none;align=center;verticalAlign=middle;whiteSpace=wrap;rounded=0;" vertex="1" parent="WIyWlLk6GJQsqaUBKTNV-1">
          <mxGeometry x="220" y="-190" width="100" height="60" as="geometry" />
        </mxCell>
        <mxCell id="l2DL5o-c70L8eopWNdNp-19" value="" style="verticalLabelPosition=bottom;verticalAlign=top;html=1;shape=process;whiteSpace=wrap;rounded=1;size=0.14;arcSize=6;" vertex="1" parent="WIyWlLk6GJQsqaUBKTNV-1">
          <mxGeometry x="200" y="-90" width="140" height="60" as="geometry" />
        </mxCell>
        <mxCell id="l2DL5o-c70L8eopWNdNp-28" style="edgeStyle=orthogonalEdgeStyle;rounded=0;orthogonalLoop=1;jettySize=auto;html=1;exitX=0.5;exitY=1;exitDx=0;exitDy=0;entryX=0.5;entryY=0;entryDx=0;entryDy=0;entryPerimeter=0;" edge="1" parent="WIyWlLk6GJQsqaUBKTNV-1" source="l2DL5o-c70L8eopWNdNp-20" target="l2DL5o-c70L8eopWNdNp-24">
          <mxGeometry relative="1" as="geometry" />
        </mxCell>
        <mxCell id="l2DL5o-c70L8eopWNdNp-20" value="case 1;&lt;br&gt;leave()" style="text;html=1;strokeColor=none;fillColor=none;align=center;verticalAlign=middle;whiteSpace=wrap;rounded=0;" vertex="1" parent="WIyWlLk6GJQsqaUBKTNV-1">
          <mxGeometry x="220" y="-90" width="100" height="60" as="geometry" />
        </mxCell>
        <mxCell id="l2DL5o-c70L8eopWNdNp-24" value="Конец" style="strokeWidth=2;html=1;shape=mxgraph.flowchart.terminator;whiteSpace=wrap;" vertex="1" parent="WIyWlLk6GJQsqaUBKTNV-1">
          <mxGeometry x="200" width="140" height="60" as="geometry" />
        </mxCell>
        <mxCell id="l2DL5o-c70L8eopWNdNp-29" style="edgeStyle=orthogonalEdgeStyle;rounded=0;orthogonalLoop=1;jettySize=auto;html=1;exitX=0.5;exitY=1;exitDx=0;exitDy=0;entryX=0.5;entryY=0;entryDx=0;entryDy=0;entryPerimeter=0;" edge="1" parent="WIyWlLk6GJQsqaUBKTNV-1" source="l2DL5o-c70L8eopWNdNp-18" target="l2DL5o-c70L8eopWNdNp-24">
          <mxGeometry relative="1" as="geometry">
            <Array as="points">
              <mxPoint x="270" y="-120" />
              <mxPoint x="360" y="-120" />
              <mxPoint x="360" y="-20" />
              <mxPoint x="270" y="-20" />
            </Array>
          </mxGeometry>
        </mxCell>
      </root>
    </mxGraphModel>
  </diagram>
</mxfile>
